PathFileType  4	(X/Y/Z) C:\Users\antoi\Documents\MyRepositories\mobilecap\ResultsAnalysis
DataRate	CameraRate	NumFrames	NumMarkers	Units	OrigDataRate	OrigDataStartFrame	OrigNumFrames
100.0	100.0	5	51	mm	100.0	87	231
Frame#	Time	r_knee			r_shank_antsup			r_ankle			r_calc			r_5meta			r_toe			L_knee			L_shank_antsup			L_ankle			L_calc			L_5meta			L_toe			r_sh2			r_sh3			r_sh4			L_sh2			L_sh3			r_thigh1			r_thigh2			r_thigh3			r_thigh4			r_thigh5			L_thigh1			L_thigh2			L_thigh3			L_thigh4			r.ASIS			r.PSIS			L.ASIS			L.PSIS			C7			R_Shoulder			L_Shoulder			R_Sternum			L_Sternum			R_humerus			R_elbow_med			R_elbow_lat			R_forearm			R_wrist_radius			R_wrist_ulna			L_humerus			L_elbow_med			L_elbow_lat			L_forearm			L_wrist_radius			L_wrist_ulna			R_HJC			L_HJC			R_HJC_reg			L_HJC_reg			
		X1	Y1	Z1	X2	Y2	Z2	X3	Y3	Z3	X4	Y4	Z4	X5	Y5	Z5	X6	Y6	Z6	X7	Y7	Z7	X8	Y8	Z8	X9	Y9	Z9	X10	Y10	Z10	X11	Y11	Z11	X12	Y12	Z12	X13	Y13	Z13	X14	Y14	Z14	X15	Y15	Z15	X16	Y16	Z16	X17	Y17	Z17	X18	Y18	Z18	X19	Y19	Z19	X20	Y20	Z20	X21	Y21	Z21	X22	Y22	Z22	X23	Y23	Z23	X24	Y24	Z24	X25	Y25	Z25	X26	Y26	Z26	X27	Y27	Z27	X28	Y28	Z28	X29	Y29	Z29	X30	Y30	Z30	X31	Y31	Z31	X32	Y32	Z32	X33	Y33	Z33	X34	Y34	Z34	X35	Y35	Z35	X36	Y36	Z36	X37	Y37	Z37	X38	Y38	Z38	X39	Y39	Z39	X40	Y40	Z40	X41	Y41	Z41	X42	Y42	Z42	X43	Y43	Z43	X44	Y44	Z44	X45	Y45	Z45	X46	Y46	Z46	X47	Y47	Z47	X48	Y48	Z48	X49	Y49	Z49	X50	Y50	Z50	X51	Y51	Z51	

87	0.86000000	-689.81668	886.79942	-414.09154	-725.18743	869.65963	-382.90757	-979.25811	615.46274	-441.53149	-1045.89594	629.35100	-498.30747	-943.94810	484.62441	-400.05470	-894.95485	469.54730	-450.35142	-730.89101	870.48249	-732.47437	-750.79923	786.93944	-744.41394	-1009.38298	591.44545	-713.78944	-1075.47787	617.91338	-669.01442	-983.50922	453.70482	-722.74801	-938.58663	443.40206	-667.81718	-812.23759	785.87018	-385.49366	-675.73683	820.48369	-417.98195	-756.59902	738.80049	-430.72114	-806.37487	854.99353	-757.58148	-892.50347	767.81648	-755.13450	-750.31980	1168.30001	-383.67969	-709.16687	1061.48103	-374.75386	-658.05400	1060.27220	-398.98465	-692.97544	1181.70366	-477.61849	-647.07757	1080.73949	-463.57343	-744.84420	1190.09355	-741.93632	-722.02613	1050.35414	-758.15061	-855.32634	1171.79219	-753.68293	-834.48268	1032.65652	-730.52150	-723.10212	1325.24951	-446.34073	-894.57420	1397.68788	-624.33902	-721.59983	1313.60431	-677.28927	-896.09250	1397.49265	-525.71924	-682.34820	1821.14663	-577.34772	-624.77307	1790.43121	-435.61802	-638.99074	1767.16123	-715.81954	-604.09220	1699.20301	-562.99983	-605.64949	1696.50471	-581.15023	-602.01915	1599.56946	-292.48520	-645.19062	1479.22726	-289.80991	-604.63752	1517.19627	-240.94778	-481.26509	1549.54832	-305.64055	-415.70007	1581.55975	-373.66778	-392.20601	1552.29322	-350.17009	-631.39901	1555.76035	-826.23193	-663.81876	1427.93533	-792.94588	-633.21605	1447.23298	-853.21086	-500.97879	1481.24727	-788.91993	-429.68382	1512.98922	-717.68782	-408.86299	1479.15397	-737.74484	-812.44021	1261.58105	-479.16580	-818.40751	1264.51380	-669.72117	-741.71108	1415.01468	-645.54486	-744.06052	1414.71225	-492.94021	
88	0.87000000	-669.38936	894.26328	-412.67904	-703.76397	876.20851	-381.58336	-954.25953	618.53947	-440.34723	-1020.65134	630.99849	-497.21692	-916.92625	488.87233	-397.35684	-867.54870	473.98739	-447.43003	-710.75285	876.83964	-732.87265	-730.71781	793.61269	-744.41957	-991.11307	600.80810	-712.87741	-1056.57880	628.36469	-667.63847	-967.59400	462.46873	-721.16168	-922.27439	451.93177	-667.04608	-789.79463	791.48057	-384.31432	-653.89565	827.83460	-417.06388	-733.62096	744.99050	-429.73949	-785.57405	862.04001	-758.06498	-872.35012	775.99015	-755.21095	-739.87162	1173.30951	-383.25485	-695.47206	1068.01863	-373.80443	-644.28025	1068.61761	-397.37164	-682.09380	1188.42909	-476.60526	-633.09949	1089.06757	-461.95373	-734.30143	1195.00725	-742.89526	-706.93162	1056.12138	-759.35519	-844.21973	1173.20183	-754.68870	-818.70471	1034.86917	-731.99544	-714.97281	1327.58340	-446.30335	-887.02811	1399.36425	-624.70780	-713.49968	1315.20037	-677.37238	-888.78956	1398.88932	-526.30764	-670.35248	1823.52949	-576.85573	-612.91978	1790.34801	-433.39273	-628.08332	1768.13960	-716.68318	-594.88063	1699.43282	-563.41682	-595.38316	1697.75748	-580.83032	-599.44601	1597.92917	-290.02024	-649.07898	1481.48446	-284.91264	-607.02164	1517.86774	-236.35906	-479.13214	1537.59684	-297.53184	-408.81156	1561.62541	-364.41811	-388.61507	1531.30215	-339.07235	-626.95214	1554.81684	-824.75610	-664.05967	1429.42992	-792.61367	-633.78039	1447.24680	-852.82426	-497.64519	1470.88532	-792.05958	-421.90164	1495.52261	-722.14469	-404.52993	1460.69327	-743.14219	-804.33985	1263.74657	-478.95599	-810.35350	1265.75341	-669.52151	-734.21762	1417.14154	-645.41137	-736.95061	1416.40437	-492.71033	
89	0.88000000	-649.83049	900.94860	-411.65860	-683.42287	881.77324	-380.74662	-928.22333	618.38584	-439.38746	-993.72232	628.82601	-496.11141	-888.10905	490.39148	-394.36638	-838.15558	476.05886	-443.91933	-690.79605	882.61885	-733.30900	-710.39534	799.65892	-745.08343	-972.37441	608.94891	-711.96167	-1037.43403	637.06861	-666.15761	-950.17392	470.26153	-719.85374	-904.63501	459.34220	-666.49655	-767.62464	795.05907	-382.90149	-632.64433	834.65865	-416.27788	-710.46693	750.14899	-428.76847	-764.99295	868.06779	-758.40909	-852.39707	782.56616	-755.32382	-729.88879	1177.40521	-382.57528	-682.41024	1073.65734	-372.88347	-630.97874	1075.65760	-395.95722	-671.55695	1194.27357	-475.45820	-619.78744	1096.45718	-460.25779	-724.04571	1199.41145	-743.64033	-692.12827	1061.58828	-760.35556	-833.24791	1174.02472	-755.32572	-803.09866	1036.65694	-733.32265	-706.82507	1329.41094	-446.09903	-879.35118	1400.15247	-624.95051	-705.26510	1316.12514	-677.54761	-881.42868	1399.37588	-526.83618	-658.13269	1824.84240	-576.28366	-601.03661	1789.02517	-431.48420	-617.17407	1768.20839	-717.70636	-585.58755	1698.54134	-564.08173	-584.24202	1698.82706	-579.59987	-596.70912	1596.49138	-287.19675	-652.20204	1483.53811	-280.20737	-608.74815	1518.11049	-232.16871	-477.49126	1524.36360	-289.36436	-403.09984	1539.83041	-354.61578	-386.56665	1508.58678	-327.69605	-622.65019	1553.33363	-823.28255	-664.04555	1430.34867	-792.24481	-634.10450	1446.79749	-852.54403	-494.75386	1459.53078	-795.75317	-415.20828	1476.43236	-727.09087	-401.30449	1440.65244	-749.21175	-796.00555	1265.22005	-478.62638	-802.09539	1266.18144	-669.19783	-726.72230	1418.71031	-645.32899	-729.96107	1417.49905	-492.35687	
90	0.89000000	-631.50130	906.69707	-410.84546	-665.29324	885.69725	-381.35109	-901.30760	615.39039	-438.19364	-966.17507	623.21674	-495.24857	-857.60896	489.35809	-391.16002	-807.02143	475.86856	-439.98087	-670.73580	887.16133	-733.86338	-690.33915	804.73688	-745.85231	-953.28044	615.46014	-710.94219	-1018.13318	643.52915	-664.82229	-930.84258	477.13005	-719.65248	-885.50919	465.54374	-666.25190	-745.94398	796.94964	-381.19122	-612.29598	840.81318	-415.60088	-687.46349	754.13468	-427.72110	-744.86323	873.02263	-758.78824	-832.73497	787.51771	-755.45045	-720.10563	1180.42295	-381.74116	-669.84507	1078.09209	-371.85345	-618.20321	1081.58002	-394.51841	-661.31123	1199.16743	-474.30260	-607.08293	1102.84261	-458.67755	-713.98046	1203.22200	-744.08047	-677.77464	1066.66833	-760.98435	-822.31300	1174.37386	-755.71905	-787.77562	1038.06778	-734.25165	-698.52763	1330.58499	-445.78291	-871.35929	1400.25991	-625.05999	-696.88447	1316.53036	-677.57863	-873.74109	1399.10841	-527.31101	-645.71832	1825.12760	-575.70985	-589.33184	1786.70755	-429.77442	-606.10137	1767.40327	-718.76207	-576.22461	1696.65374	-564.84955	-572.54991	1699.53363	-577.91629	-593.61249	1595.47131	-283.71438	-654.18248	1485.88105	-274.73828	-609.63858	1518.15606	-227.83589	-476.51908	1510.31927	-281.05543	-398.96590	1516.89614	-344.27211	-386.34871	1484.90279	-316.19625	-618.40758	1551.47943	-822.17180	-663.71719	1430.60647	-791.89040	-634.06556	1446.05882	-852.69434	-492.48787	1447.08809	-799.37779	-409.89910	1456.19935	-732.56425	-399.43160	1419.51981	-755.90135	-787.43769	1266.00659	-478.22987	-793.54976	1266.00201	-668.80330	-719.08655	1419.70784	-645.03532	-722.82046	1417.90313	-491.82152	
91	0.90000000	-614.63397	911.24468	-410.00752	-649.46290	887.66552	-383.15093	-873.60808	609.83466	-436.66645	-938.25979	614.83912	-494.43540	-825.73867	486.07833	-387.83826	-774.48590	473.62087	-435.93837	-650.92629	890.87271	-734.42994	-670.99722	808.71259	-745.76466	-933.66954	620.01374	-709.99666	-998.48404	647.53673	-663.66826	-910.11778	482.49038	-720.34564	-864.96164	470.29911	-666.45762	-724.77391	797.54936	-379.81641	-593.06244	845.98479	-414.88798	-664.92513	756.64476	-426.31276	-725.37586	877.03923	-759.13025	-813.19487	791.39389	-755.50560	-710.42757	1182.33241	-381.04572	-657.74309	1081.35254	-370.82980	-606.05162	1086.28131	-393.24692	-651.26683	1203.21169	-472.70503	-595.00452	1107.99789	-457.41346	-703.95468	1206.37866	-744.52267	-663.74691	1071.09729	-761.56923	-811.35159	1174.31408	-756.21970	-772.82825	1039.02814	-735.01175	-689.95579	1330.82277	-445.51623	-863.06436	1399.89892	-624.84616	-688.50779	1316.41820	-677.32622	-865.57705	1398.27417	-527.64501	-633.21059	1824.43817	-575.15280	-577.72808	1783.56768	-428.23915	-594.69184	1765.81324	-719.87207	-566.49391	1694.00610	-565.68910	-561.31335	1698.67321	-577.19886	-590.20352	1594.28378	-279.67208	-655.09349	1488.50893	-268.53267	-609.71312	1518.25494	-223.00379	-476.32727	1495.97353	-272.52251	-396.68892	1493.33754	-333.65877	-388.02816	1460.98305	-304.49498	-614.05147	1549.31752	-821.81129	-662.96390	1430.25691	-791.61647	-633.69179	1444.89066	-852.98992	-491.15472	1433.70302	-803.16006	-405.89936	1435.15496	-738.91277	-399.15587	1397.82298	-763.09626	-778.72032	1266.03186	-477.81376	-784.91519	1265.37639	-668.38315	-711.27371	1419.99087	-644.36618	-715.23493	1417.43025	-491.14640	
